<?xml version="1.0" encoding="utf-8"?>
<!-- Generator: Adobe Illustrator 27.8.1, SVG Export Plug-In . SVG Version: 6.00 Build 0)  -->
<svg version="1.1" id="Layer_4" xmlns="http://www.w3.org/2000/svg" xmlns:xlink="http://www.w3.org/1999/xlink" x="0px" y="0px"
	 viewBox="0 0 512 512" style="enable-background:new 0 0 512 512;" xml:space="preserve">
<style type="text/css">
	.st0{fill:none;}
	.st1{fill:#FFFFFF;}
	.st2{fill:none;stroke:#FFFFFF;stroke-width:20;stroke-linecap:round;stroke-linejoin:round;}
	.st3{fill:none;stroke:#FFFFFF;stroke-width:30;stroke-linejoin:round;}
	.st4{fill:none;stroke:#000000;stroke-width:16;stroke-linecap:round;stroke-linejoin:round;}
	.st5{fill:none;stroke:#000000;stroke-width:16;stroke-miterlimit:10;}
	.st6{fill:#AA4444;stroke:#000000;stroke-width:16;stroke-linecap:round;stroke-linejoin:round;}
</style>
<g>
	<g>
		<g>
			<rect x="16.9" y="72.3" class="st0" width="474.8" height="474.8"/>
			<path class="st1" d="M418.8,279.7V175.8c0-8.2-6.6-14.8-14.8-14.8H107.2c-8.2,0-14.8,6.6-14.8,14.8v103.9
				c0,178.1,163.2,222.6,163.2,222.6S418.8,457.7,418.8,279.7L418.8,279.7z"/>
			<g>
				<path d="M274.6,399.9v-0.5h-0.3l0.3-0.3V398l-1.4,1.4l-1.4-4.3l-0.6-0.1l1.4,4.4L271,402l3.2,0.6v0.1h0.1l0.1-0.1v0.3l3.6,0.6
					l-1.9,2.7l0.5,0.9l2.5-3.6l1.4,3l-1.1,3.2l-0.6,0.5h-15.5l-2.5-1l-0.9-2.3v-1.5l-0.3-3.1l-0.9-2.7v-7.2l0.4-0.3l1.1-4.1v-4.4
					l-1.1-1v-7.2l1.6-2.5l1.2,3.8l0.6,1h2.3l0.6-1H262l2.7-3.2l-0.9-0.1l-1.4,1.6l-0.5-1.9l-1.2-0.3l0.6-1.4l-0.1-0.4h0.4l1.1-2.2
					l-0.3-0.5l-1.9,3.7l-1.6,2.5v-4.8l0.3-0.1v-3.8l-0.1-0.3v-0.5l-0.1-0.3h0.1v-4.1l4.8,1.4l0.5-1.7l-3.7-1.1l0.7-1.7l-0.5-3.8
					l-1.2-0.3v-9.6l2.7,0.1l2.1,3.1l0.7-2l-0.6-1l0.6-0.3h0.1l0.5-0.1l0.3-0.7l-2.8,1l-2.7-0.1v-13.7l-0.4,0.3l0.5-3.5l1.6,1.9
					l1-0.4l-2.2-2.5l2.8-2.3l-0.3,0.7h1.4l-0.3-0.4h1.6l0.1-0.4l0.3,0.4h0.4l1.6,0.4l1.1-2l-2.3-0.5h16.7l0.9,1.5h-3l1,3.7l-2.5-0.5
					l0.5,1.1l1.7,0.4l-1.2,2.8l-0.4-1l-4.6-0.3l-0.1,5.1h1.4l0.1-3.8l0.6,1.6l2.5,0.1l1-1.7l-0.3-0.4l1.2-2.8l0.9-0.3l-0.6-2.2h3
					l-0.7-1.5h6.4v-0.1h2.3l-1.6,0.3l0.1,0.3l2.2-0.4h0.5l-0.7-0.1l3.3-0.6h2.7l1.1-0.9l3.3-1.6l-1.4,3.1l0.5,0.1l-0.7,0.4l-1,2.3
					l-0.5,2.7l2.3-5.4l0.4,1.1h2l1.4-1.2h16.8l2.3,1l0.5,1l2.2,0.7l-1.4,2l-2.2-2.5l-1-0.6l2.6,4.2l-4.4-1.5l3.1,3.5l-3.6,1.9
					l-3.6-0.9l-1.2-0.3l-0.1,0.4l3,0.7l-0.1,0.1l0.7,0.1l0.1,2l0.3-0.3v-0.9l1.7-1l0.1-0.1v0.1l1.7-0.9l1.6,0.3v4.4l-1.9,3.7
					l-1.1,4.8l1.4-1.1l0.6,4.6l-2.3,1h-15.5l1.4-1.9l0.9-4.8l-0.5,0.1l-0.6,3.6l-1.5,1.9h-9.4l-4.3-0.9l-2.7,3.1v2.3l-1.2,3.3
					l1.5-0.1l3.1,0.4l0.4,0.6h6.7l0.1-0.3l0.1,0.3h6.5l1.5,0.7l1-1.5l4.3,0.9l3-0.4l-3.2-3.5h7l2.3,1h-1.4l1.4,3.3l1,2.3v4.7
					l-1.2-0.5l-2.2,2.5l-3.1-1.4l2.1-4.4l3.7,0.6l-1.5-3.6l-2.2-0.4l-2.1,4.4l-1.4-1.7l-0.3,0.3l1,1.1l-3,0.4l-1.9,1.4l0.3,3.6
					l3.8-2.8l1.2,4.2l0.1,0.6v-0.5l3.1,1.4l0.7,3.8l2.5,4.7l0.3-2.6l-2.3-4.4l-0.7-3.8l3.2,1.9l-1-4.3l1.2,0.5v6.9l-0.3,3.6
					l-0.1-0.1v5.9l-1,2.5l-2.3,0.9h-16.4l0.3-0.4l-0.5-3.5l1-1.7l3.2-2.3l5.1,2.2l3.7-0.7l0.9-4.6l-0.3-1.4l-0.6,3.3l-3.7,0.7
					l-5.1-2.2l4.2-3.1l-0.4-3.9l-3.7-1.9h-1.9l-0.3,1.5h1.2l4.1,2l-7.4,5.4l-1,1.7v0.1l0.3,0.3l1.1-0.1l-0.7,0.5l1.4,1.1l-1.7,0.3
					l0.3,1.4l-1.1,0.1l-0.9,2.7l1.7,0.1h-4.7l-0.7-2.6l-1-0.1l-2.3,2.7l-1.4-1.6h-3.9l2.3-2.7l-1.2-0.1l-3.7,3.8l-0.6-2.3l-3.6-0.1
					l-1.4-4.7l-2.6-2h-2.8l-1.1-2.6l-0.7-0.1l-0.9-1.2l-1.1,0.3l0.5-1l-0.7-0.9l1.5-0.3l1.6-2.8l1.1,2.3l0.6-0.1l-2-4.1l-0.1-0.1
					l-2.7,4.8l-3.5,0.1l-2.3-1.2l-0.5,1.4l2.6,1.4l3.5-0.1l2.2,2.8l-2-0.1l1.7,3.9h2.8l2.6,2l-4.7,0.4l0.4,1.9l4.6-0.4l1.4,4.7
					l-2.2,0.3l0.9,0.3l5.1-0.5h1l1.4-1.4v1.5h1.2l0.6,2.3l-0.3,0.3l2.6,0.9v2.2l-1.5,0.6l-2.5,1.4l-1.4,0.9v5.7l0.6,0.4l1.5,2.7v4.7
					l-1,2.3l0.6,0.9l-2.2-0.3l-0.7,0.4h-4.7l-1.9-0.5l2.6,0.3l0.4-0.3l0.6,0.1l-2.5-3.3l3.3,0.1l-1.9-0.1l-1.4-3l0.4-0.4l-0.5-0.7
					l-0.3,0.3h-0.3l-0.9,0.9l-4.7-0.9l2.2-2.6L274.6,399.9L274.6,399.9z M259,353.6l0.7,5.6l-0.7,1.7V353.6z M260.4,323.9l-0.5,1.4
					l-0.5,3.5v-2.5L260.4,323.9L260.4,323.9z M263.2,405.4l-2.2,0.1l3.3-0.1l0.6-1.4l-0.6-1.1L263.2,405.4L263.2,405.4z
					 M262.4,323.9l2.3-1l-2.8,2.3L262.4,323.9z M262.5,352.1v0.4l1,0.1v-0.5L262.5,352.1L262.5,352.1z M267.7,361.9l0.1,3.7l0.4-0.9
					l-0.3-4.3l0.1-1.1l-1.6-1.5l-0.7,2.3L267.7,361.9L267.7,361.9z M267.3,342.8l-0.9,0.4v0.5l1.1-0.4l0.3-0.3L267.3,342.8
					L267.3,342.8z M270.9,390.6v0.1l2.3,0.1l2.6,0.5l-0.1,0.9l2.5,3l2.1-0.7l1.6-1.1l-1.5-2l0.5-0.1l-2-0.4l2.1-2.5l-4.9,0.3
					l0.9-4.6l-0.1-0.7l-3.8-1.1l-0.9,4.6l-3.8,0.3l-0.6-3.9l-0.3,1.7l-0.4,0.3l0.6,3.8l3.3-0.3h-0.1h0.7l0.5-1.6l1.9,1.5l1.9-0.1
					l-2.1,2.5l-2.3-1.9L270.9,390.6L270.9,390.6z M271,330.7l-3.6,0.6l0.7,1.9l0.6-0.1L271,330.7L271,330.7z M268,407.4l1.4-1
					l-0.3-0.6l-1.5,1L268,407.4z M271.4,353l-3.3,0.1l-0.1,0.3h3.1L271.4,353z M268.2,396.1l2.8-1.1l-0.7-0.1l-1.9,0.7L268.2,396.1
					L268.2,396.1z M268.8,336.1l4.6-0.1l-0.1-1.7h-2.7L268.8,336.1L268.8,336.1z M273.5,357.3l-2.5,3.6l1.9-0.4l0.6-3.1l0.1,0.1h1.7
					l-0.4-0.5h-1.5l-3.7-1v0.3L273.5,357.3L273.5,357.3z M272.5,346.5l2.1,3h0.7l-2.3-3.2l4.4,2l-0.4-1.7l-4.1-1.7l-2.2,0.1l0.4,1.7
					L272.5,346.5L272.5,346.5z M273.6,406.1l-1.6,3.1l0.1,0.1l1.7-3.2l0.3-2l-0.1-0.4L273.6,406.1L273.6,406.1z M272.5,364.9
					l3.7-1.7l-2.1-2l-0.6,0.3v1.9l-0.6,0.1L272.5,364.9L272.5,364.9z M274.4,352.8l-0.4-0.9l-1.4-0.1l0.6,1.7l0.6,0.9l3-2.6
					l-0.5-0.7l-0.5,0.4l0.5,0.6h-1L274.4,352.8L274.4,352.8z M276.4,358.2l0.6-1l-0.1-0.1l-0.6,1L276.4,358.2z M278.5,336.9l1.2-0.1
					l-0.3-0.5h-1.2l-0.7,1.4l-1,4.7l0.3,1l0.7-3.7l1.2-2.3L278.5,336.9L278.5,336.9z M282.3,352.3l1.6-0.3l-0.5,4.3l0.5,0.1
					l-0.3-0.9h0.3l0.6-4.4l-1.6,0.3l-2-1.7l-0.7,1l0.6,0.5l-1,0.1l-0.1,0.3l-0.3-0.1l-2.6,0.4l2.1,2l-0.6,1h0.1l0.1-0.1l0.1,0.1
					l0.3-0.1l1.9-2.6l0.7,3.2l0.6-0.1l-0.1,1.2l0.1,0.1V356l1,0.3L282.3,352.3L282.3,352.3z M277.6,360.8l1-2l-1.7,0.4L277.6,360.8
					L277.6,360.8z M278,348.7l0.7,0.6l1.6-0.3l-0.6-0.5L278,348.7z M279.4,355.1l0.9,0.6l0.3-0.1l-1-0.7L279.4,355.1L279.4,355.1z
					 M281.8,360l-1.4-2.6l-0.3,0.3l1.6,3.3h4.4v-0.1h-4.4l0.4-4.2h-0.1L281.8,360z M283.3,343.5l-2.3,4.8l2.1-0.1l2.3-4.9l2.3-0.5
					v-0.3l-3.7,0.7l3.1-3.9l0.4,0.7l1.7-0.4l2.3,4.9l-1-0.4l-0.7,0.7l0.1,1.9l3.1-3.1l3.8-0.9l1.4,3.6l0.5-1.6l-0.6,0.1l1-0.9
					l0.1-0.3h0.1l2.3-1.9l0.3,1.7h1.4l-0.5-2.8l0.5-0.1l0.5-4.2l3.5-3.7h-0.9l-1.9,2.3l0.4-2.7l-2.8,3l-0.7,5.4l-2.6,2.2l-0.7,1.7
					l-0.4-1.2l-1.4-2.3l-3.5,0.9l0.7-1.6h-0.5l-1.5,3.2l-2.3-4.9l-2.2,0.5l-2.3-3.3l1.9-3.3l0.4-4.2l-0.7,0.3l-0.3,2.8l-1.6,3
					l0.3,0.4l-2.8,0.4l-0.7,1.2l2.7-0.4l2.3,3.3l-2.8,3.6L283.3,343.5L283.3,343.5z M285.5,403.5l0.1,1l1.7,2.1l0.9-0.1l-0.6-3
					l-2-4.1l-2.7-1.4L285.5,403.5L285.5,403.5z M285.4,367.1l-0.6,1.1l1.2-0.4l0.3-0.4l-0.9-0.5l-1.2-1.7v0.1L285.4,367.1
					L285.4,367.1z M284.4,388.5l0.1,0.1l2.2,0.4l0.1-0.1L284.4,388.5L284.4,388.5z M286,406.7h0.1l-1.2-0.1h-0.4L286,406.7z
					 M286.4,356.3l0.4,0.9l1.1,0.3l1.4-0.1l-0.7-2l-1,0.1l-2.6,1.2l0.4,0.1L286.4,356.3L286.4,356.3z M291.1,402.1l-1.5-2.7l1.5,0.5
					V402.1L291.1,402.1z M291.8,365.6l0.4,1l0.1,0.1l0.4-0.5l-0.9-1.5l-0.7,1.1l0.1,0.1l0.5,0.3L291.8,365.6L291.8,365.6z
					 M296.4,377.9l0.7,0.1l0.9-1l1.7,0.3l0.1-0.1l0.1-0.1l-3-4.4v0.1l-1.2-0.6l0.1,0.7l-1.2,1.6l2.1,3.1l-3.7-0.5v-0.7l-0.7,0.7
					l1.6,1.7l0.7-0.9l0.4,1.5L296.4,377.9L296.4,377.9z M294.4,364.5l2.8-3.6l0.5,0.9l3.7,0.3l-1,1.2l0.1,0.3l1.2,0.5l0.1,2l0.7,1.4
					l-0.6-0.3l0.1,0.9h0.5v-0.6l0.5-2.7l-0.4-0.6h0.5l0.3-1.5l3.3,0.5l1.9-2l0.9-1.4l-0.1-0.1l-2.1,2.3l-3.3-0.5l-1.4-3l-0.1,0.1
					l1,2.1l-2.3,0.1l-0.5,0.9h-1l-0.1,0.1l-0.1-0.1h-1.7l-0.6-1l-4.6-0.3l1.9,3.8l-0.7,3.3l0.6,0.5l0.1,0.1h1.5l0.6,2.5l1.2-2
					l-1.9-0.5L294.4,364.5L294.4,364.5z M292.8,332.5l4.6,1L292.8,332.5z M295.3,380.3v-0.1V380.3z M296.5,324.5l2.3,0.5l0.1-0.4
					l-1.4-0.4L296.5,324.5L296.5,324.5z M300.1,373.8l3.7,0.5l0.1-1.2l-1.2-1l-1.1,1.7l-0.6-2.1h-1l-3.3-0.4l0.3,0.9L300.1,373.8
					L300.1,373.8z M301.7,333l0.6-3.2l1.7,1.1l2.8-0.3l-1.9-5.6h-0.1l1.5,4.3l-4.3,0.4l-3.9,0.5l-0.7,3.2L301.7,333L301.7,333z
					 M303.8,374.8h-0.1H303.8z M309.6,340.8l-1-0.1l-2,2.6l1.4-0.3L309.6,340.8z M309.6,330.7l-1.5,2.2h-0.9l-0.5,3.5l3-3.6l4.3,0.1
					l1-1.1h-2.7l0.1-0.1h-1.4l1.5-2.2l1.1-0.3l0.4-0.7l-4.1,0.7L309.6,330.7L309.6,330.7z M307.2,326.4l2.6,0.6l0.3-1l-1.9-0.5
					L307.2,326.4L307.2,326.4z M310.1,359l0.3-0.4l-0.4,0.4H310.1z M311.1,336.7l1.9,0.3v-0.6l1.2-0.4l-2.1-0.3L311.1,336.7z
					 M316.4,337.5l0.3,3.3l1.5-3.8L316.4,337.5l0.5-1.1l-2.3-0.4l-0.4,1.1L316.4,337.5L316.4,337.5z M319.2,369.4l-1.2-4.2l1.4,1.7
					L319.2,369.4L319.2,369.4z M322.4,338.5l-0.1-1.4h-0.4v1l-0.1,0.3L322.4,338.5L322.4,338.5z M324.5,365.4l1,4.3l-3.2-1.9
					L324.5,365.4L324.5,365.4z M325.4,344.7l1.1-4.8l1.9-3.7v7.3l-1.6,0.1L325.4,344.7L325.4,344.7z M327.1,331.6l1.4-2l0.3,2.2
					L327.1,331.6z M332.4,323.5v2.3l-0.3,0.1l-2.6-4.2L332.4,323.5L332.4,323.5z"/>
				<path d="M319,287.2l2.5,3.1l-4.4-0.3l-2.2-0.3l-2.2-0.3l-4.4-1.1l-0.4-1.1l-1.1-0.4l-0.4-0.2l0.8,1.8l-2.2-0.8l-2-1.3l-2.1-0.4
					l-3.8-2.3l-1.8-1.4l-3.1-3.2l-1.3-1.9l1-3.2l4.2,1.1l0.6-3.6l-3.2-0.8l-1,3.2l-2.2-3.9l-0.3-1l-0.6,1l-1.2-4.3l-0.3-2.2
					l-0.3-2.2l-0.2-4.9l0.8,0.8l-0.6-4.2l-0.2-4l1.5,0.6v-1.1l-1-1.7l1.1-3.9v-0.1l0.3-5.2l0.3-2.2l1.8-0.3l-1.4-1.1l-2,0.2l1.1-4.4
					l0.2,0.1l1.4-3.2l2.1,4.2l0.3,0.1l-2.4-4.9l-1.7,3.6l0.9-2.1l1-2.1l1.2-2l0.3,1l3-1.1l2.5,1.2l-1.9-2.5l0.9-0.3l-1.5-0.7
					l-3.3,1.1l1.3-1.8l1.5-1.8l1.7-1.5l1.8-1.4l1.9-1.3l4.1-2.1l2.1-0.9l2.2-0.7l-1.4,2.3l-1,2.5l1.2-1.9l4.4-1.1l-0.1,2l3.4-0.7
					l-0.7-0.6l-1.4,0.2l0.1-2h1.5l0.7,0.6l1-0.2l4.6-0.3h5.1l4.4,0.3l3.4,0.6l-0.2-1.5l2.5-1.3l2.2,0.4l2.2,0.6l2.1,0.7l2.1,0.8
					l4.1,1.9v1.3l0.3,2.9l-1.4,4l1.7-0.6l0.2-0.8l-0.4-0.6l0.7,0.2l0.6-1.7l1.3,1.5l-0.2-2.5v-1.3l1.9,1.1l1.9,1.2l3.4,2.9l1.5,1.7
					l2.5,3.8l0.9,2.1l0.8,2.1l0.4,2.2l0.2,2.2l-2.4,2.4l-4.3-1.2l0.6-3.3l-0.4-2l-3.5-4.2l3.1-2.7l-0.8-1.1l-3,2.5l-0.3-2.4l-2-0.7
					l0.3,1.8l-0.6,2l3,3.4l-3.3-0.4l0.6,1.1l4.2,0.7l-1.7,3.6l1.1-0.9l1.7-3.5l0.4,2l-1.1,0.9l-0.6,3.2l-4.5,1l-3.3,0.2l-3.5-1.2
					l-3-0.1l-2.1,0.4l-3.6,0.9l0.6-3.4l-2-1.1h-0.4l1.9,1.1l-0.6,3.4l-3.2-1.2l-3.3-3.3l-4.5-1l-4.5,0.9l2.2-2.7l-4.6,0.2l-0.6,2.7
					l0.8-0.9l3.1-0.8l-3.1,4.5l3.8,0.3l-0.9,2.5l-4.6,1.1v11.9l-3.3-0.4l-1.8,0.2l-5-1.4l-0.3,0.2l-1.3,3.8l0.1,1l1.9-0.1l0.8-2.3
					l5,1.4l1.8-0.2l3.3,0.4l-0.8,1.8l0.9,0.6v2.3l-0.7,4l1.1-2.8l1.5,4l-1.5-0.1l2.2,3.2l-0.1,0.6l3,0.6l2.4-0.1l4.3-1.7l-2.3,3.4
					l0.1,3.6l-0.2,3.5l2.3,0.4l-1.1,2.2l0.2,0.2l0.2-0.1l1.2-2.3l-0.6-2.2l0.2-3.5l-0.1-3.6l2.3-3.4l1.5-1.8l1.2-1.9l-0.8-0.8
					l-2-0.4l-1.4,0.4l-2.1-0.9l-0.6-2.2l-0.6-0.1l0.2-4.7l-0.3-2.3l2,2.3v-1.1l-1.5-1.8v-2.2h-0.1v2.8l-1.2-0.9v-4.1l0.9-2.1
					l2.1-0.9l2.5,0.7l-0.7-3.1l-3.1-0.8H343l1.7,0.9l-5.3-0.3l-1.7,1h-4.4l1.4,3.2h-2.5l0.6,2.8h0.2l-0.7,2.8h2.3l-1.2,4.2l-2.3,3.9
					l-1-3.3l-0.6,0.3l1,3.2l1.7,0.3l2.3-3.9h-0.2l0.6-1.8l-0.2-1.2h0.6l0.3-1.2l3.1,0.9l-0.9-1.9l-0.9-0.2h-2.3l0.7-2.8l2.8-0.1
					l1.9-2l1.7-1l5.3,0.3l-1.8-0.9h6.5l1.8,0.4l0.9,3.5l0.7-2.7l-1.8-1.3h2.2l2.3,0.9h4.1l-1,4.9l-2,1.8l1,0.2l2.3-2l1-4.9l0.6,3.3
					l0.3,2.9l-1.8,1.8l-2-0.7l-0.2,0.4l0.6,0.2l-1.1,1.7v0.1l2.7,0.6v4.1h-0.3l1.3,2.1v0.1l0.2-0.1l-0.2,0.3l-0.1,2.4l-1.5,1.4
					l-0.1-1.5l-0.6,0.8l0.1,1l2.8-0.2l1,3l-1.5,0.4l-2.9-3l-2.7,0.2l2.3,2.4l0.2-0.1l-0.1,0.3l0.3,0.2l-0.3-0.1l-0.1,0.2l0.1,3.6
					l-1.1-0.4v0.2l0.4,0.2l-0.9,2.1l-1.1,2l-1.7,2.2v0.9l-1.7,1.7l-3.5,2.8l-1.9,1.2l-1.3-0.7l-0.1-0.2l-0.6,0.3l-2.1,1h-0.2
					l-0.1,0.2v-0.1l-4,1.3h-0.1l-1.1,1.5l-1,0.8l-2.2,0.6l1.8-1.5l-0.8-1.1l-1,0.9l-2-1.7l-2.4,2.3l-2.3,0.1l-2.2,0.1H322l-0.2,0.6
					l-2.2-2.7L319,287.2L319,287.2z M289.9,246l1.1,0.2l1.5-1.9l-0.1-0.3l-0.9-0.1l-1.5,1.9L289.9,246L289.9,246z M296.3,243l-3,3.4
					l1.1,0.1l2.4-2.8l0.6,1.8l1.5-2.7l-1.4-3.8l0.2-2.4l-2.9-0.7l2.8-2.8l0.8,2.7h4l-2.8,2.8l3.8,0.8l-0.4-1.5l-0.3-0.6h0.2
					l-0.4-1.4l-1.2-1.3l-1.7,0.6l0.8-1.3l-0.1-0.1h0.2l1.7-3.1l2.3,0.2l0.8-1l-1-1.5l-0.1-3.6l-1.4-0.1l0.1,3.6l-0.2,0.7l0.7,0.9
					l-0.9-0.1l-0.2,0.8l-3.3,1l-2.3,0.2l1.2,1.2h-4.5l-0.3,3l1.7,1.3l1.4,3.8l-1.3,2.2L296.3,243L296.3,243z M297.2,256.2v0.9
					l0.7,0.1l-0.8,1l-0.1,2l2.1-0.2l-2.3,3.9l3.4-0.1l-1.1-3.8l1.4-2.3l-2.7-0.4l0.1-2.1l-2.4,1.2L295,257h0.8L297.2,256.2
					L297.2,256.2z M295.4,230.6l0.1,0.1l0.4-2.4h-0.2L295.4,230.6L295.4,230.6z M296,219.1l1.5,2.1l3.4-1.1l0.2-0.4l0.1,0.2h3.3
					l0.1-1.4l0.6-1.2l-1.1,0.1h-3L296,219.1L296,219.1z M296,252.7l2,2.2l0.1-2l-0.2-0.2H296L296,252.7z M304.8,283.2l1.3,2.8
					l0.8,0.1l0.9,0.6l-0.3-0.7l-1.3-2.8l-0.1-2.5l3.2-0.3L309,278l-3.5-0.4l0.6-2.8l2.7-3.3l1.8-4.9l2.4,0.2l0.9,2.1l0.8-1.2
					l-0.3-0.9l-2.4-0.2l1.5-2.3l1.3,0.1l0.4-3l-0.3-0.9l-1.4,3.8l-3.1-1.3h-3l1.9-3.3l-3.2,3.3l0.1,2.7l2.5-2.7l3.1,1.3l-1.5,2.3
					l-1.8,4.9l-2.7,3.3l-0.2-5.1l-0.1-3.4l0.3-0.3l-1.8-1.8l-1,1.3l0.4,1.5h-1.5l-0.3,0.6l-1.9,3.1l-1.3-4.5l-0.7,5.2l-0.3-0.1
					l0.8,2.8l1.9-3.1l2.4-3.4l2.1,2.2l0.2,5.1l-0.6,2.8l3.5,0.4l0.2,2.3l-3.2,0.3L304.8,283.2L304.8,283.2z M301,245.8l-3.5,0.2
					l0.2,0.8l1.8-0.1l1.7-0.6L301,245.8L301,245.8z M302.2,224.4l-3,2.7l0.1,0.1l3.2-2.8l-0.1-0.1l-4,0.1l-0.1,0.1L302.2,224.4
					L302.2,224.4z M302.9,250.2l0.2,0.8l0.6,0.1l-0.4-1.2h-0.3L302.9,250.2L302.9,250.2z M307.8,233.5l-1.8,0.1l-1.9,3.4l3.5-1.1
					l0.1-0.2h0.4l0.4-0.1l3.9-0.2v-2.9l1,0.9l2.4-3.5l-3.1,0.8h-5.1L307.8,233.5L307.8,233.5z M304.5,257.3l1.1-0.4l0.2-0.7
					l-1.5-0.7L304.5,257.3L304.5,257.3z M305.9,219.8l2.1,1.1l0.1-0.8l-1.4-0.7l-1.1,0.3H305.9L305.9,219.8z M308.8,259.6l-0.2,0.1
					h0.4v-0.1l-0.4-1.9h-1.5l-0.4,0.9L308.8,259.6z M307.3,241.9l0.4,0.6l0.2-0.4L307.3,241.9L307.3,241.9z M307.8,224.2l1.3,2.3
					l1.4-1.1l-0.4-0.8l1.7-0.1l0.9-0.6L307.8,224.2L307.8,224.2z M312.9,231.6l-2.1,2.5l-3-2.5H312.9z M309.2,220.7l-0.6-0.2
					l-0.3,0.6l0.9,0.4l1.7-3.4l-1.2,0.2l-0.2,0.6L309.2,220.7L309.2,220.7z M310.1,274.4l0.6,2.1l0.3-0.3l-0.4-1.8l1.2-0.2V274
					L310.1,274.4z M311.9,270.1l0.4,1l0.4-0.7L311.9,270.1L311.9,270.1z M315,224.4l-0.2,0.1l0.1,0.3l2.2-4.5l-0.9-0.1l-1.7,3.5
					l0.2,0.7H315L315,224.4z M315.3,234.7l0.3-0.1h-0.4L315.3,234.7z M318.9,276.6l0.2-0.2l-0.7-3.5l-3,3.6v0.1l3.8,0.7l0.9,2.2
					l-1.5,4.2l-1,0.2l-0.2,0.4l2.4-0.4l1.1-2.3l1.2-3.3l-0.4-1.2l-2.2-0.3l-0.2,0.6l-0.1-0.7H318.9L318.9,276.6z M316.5,264.8
					l1.2,1.5l-0.2-1.9l-1.1-0.1L316.5,264.8L316.5,264.8z M316.8,227.8h0.4v-0.1h-0.6L316.8,227.8L316.8,227.8z M318.3,267.8
					l-0.3-0.3l-0.1,0.2L318.3,267.8z M320.2,220.3l0.7,4.6l4.3-0.6l0.4-2.5l-4,0.4l-0.2-1l-0.1,0.2v-1l-0.9-0.2l0.8-0.8l-0.1-0.7
					l-1.4,1.3L320.2,220.3L320.2,220.3z M323.5,284.5l-3.4,0.4l-0.3,0.4l3.5-0.4L323.5,284.5L323.5,284.5z M320.7,273.9l-0.4,1.1
					l0.7-0.9L320.7,273.9L320.7,273.9z M326.3,214.8l-3.3,3.5h0.9l0.1-0.3l2.8-0.2l0.3-0.2l-3,0.2l2.8-2.9L326.3,214.8L326.3,214.8z
					 M323.8,277.7l1.2,0.3l0.4-0.4l-0.2-0.3l-0.8-0.1L323.8,277.7L323.8,277.7z M326,257.9l-1.3-1.8l1.5-3L326,257.9L326,257.9z
					 M330.3,219.8l-2.8-0.6l-1.3,1.1v0.2l4.5,0.9l0.1-4l-0.4-0.2L330.3,219.8L330.3,219.8z M328.9,231.4l1.3-5.1l-0.2,0.1l-1.2,5
					H328.9L328.9,231.4z M334.9,229.9l-4.1,1.7l-1.9,1.7h0.6l1.8-1.7l4.1-1.7l0.7-2.3l-0.4-0.1v-0.8l-1.9,0.4L334.9,229.9
					L334.9,229.9z M332,277.3l0.3,1.2l1,0.3l0.4-1.4l-1.7-0.6l0.8-1.2l-1.3-0.4l-1.7,2.7l1.7,0.4L332,277.3L332,277.3z M331.4,290.6
					l2.4-2.2l2,1.5L331.4,290.6L331.4,290.6z M342.4,229.8l-0.2-1.2l-1.1,0.3l0.9-1.1l-0.6-1.8l2-0.3l0.9-1.1l-4.2,0.6l-1.1-2.8
					l0.2-4.5l-1.5-2.2l-3.1,0.2l-0.6-3.1l-1.7,0.9l0.8,4l1.3,0.8l0.3,0.7l2.5-0.1l1.5,2.2l-0.2,4.5l0.7,1.8l1.1,0.2l1,3.8l4.5-1.7
					l2.3,1.5l1.1-0.2l1.1-3.8l0.1,0.4l0.2-0.8l-1-2l-0.4,0.1l0.1-0.9l-0.1-0.2l-1.5-2.3l-0.1,2.5l1.7-0.2l-1.4,4.7l-2.3-1.5
					l-1.8,0.7L342.4,229.8L342.4,229.8z M332.9,220.9l0.7,0.9l2.1,0.3l-0.4-0.9L332.9,220.9L332.9,220.9z M334.1,281l1.8,2.3
					l2.1,0.8l2.5-0.3l1.5-2l-4.1,0.6L334.1,281L334.1,281z M341.1,266.7l0.7,1l0.2,0.1l0.4,1l0.4,0.8l-0.1,0.2l0.4,1.2h-0.9
					l-0.3,1.1l1.2-0.1v0.2l1.1-3.2l-1.3-2.2l-1.4,0.3l0.1-4.4l-1,0.3l-0.1,2.3l-3.4,0.1l-2.7-0.3l-0.1,2l1.3,0.1l3.4-0.1
					L341.1,266.7L341.1,266.7z M338.7,254.7l-4.1-0.3l0.6,2.5L338.7,254.7L338.7,254.7z M335.5,242.7h4.4l-3,3.2L335.5,242.7z
					 M337.9,269.4l-1,1.5h0.4l0.9-1.5H337.9L337.9,269.4z M337.6,228.5l2.1,2.8L337.6,228.5z M338.6,260.6l1.1-0.2l-0.3-0.7
					l-0.9,0.6v0.2L338.6,260.6L338.6,260.6z M339.2,271.4l0.9,1l1.4-0.1l-0.4-1.1L339.2,271.4L339.2,271.4z M341.9,258.3l-2.4,1.4
					l0.8,0.1l2.3-1.4V258h-3.2v0.2H341.9L341.9,258.3z M342.1,275.9l-0.4-0.4l-1.8,3.4l1-0.2l1.2-2.3l1.1,1.8l0.9-0.1v0.1l0.1-1.5
					v-0.1L342.1,275.9L342.1,275.9z M344.5,259.6l2.9,5l1.8-2l0.6,0.1l0.3-1.9l0.7,1.9h0.8l-1-3l-1.9-3.2l-0.3,4.2l-2.8-3.1l2.2-2.4
					l0.2-1l-0.3,0.4l-0.3-0.8l-1.5,0.7l0.1,0.1l-0.9,3.6h0.6l-0.7,0.8l0.2,0.3h-0.6l-1.2,1.3l-0.7-0.1l-1.4,1.2l0.6,0.9l2.3-2
					l0.3,0.3L344.5,259.6L344.5,259.6z M342,254.3l0.1-0.8l-0.2,0.8l0.6,0.1L342,254.3L342,254.3z M344.3,250.5l1.3,3.8l1.2-1.7
					l-0.8-2.1h-0.7l-0.1-1.4h-0.1l0.1-0.2l-0.1-2.2l-2.7,4.2l1.7-0.3l-0.9,2.4L344.3,250.5L344.3,250.5z M342.8,254.5l-0.1-0.1v0.1
					H342.8z M346.9,273.7l-3.6-1.3l0.1,0.4l3.2,1.3L346.9,273.7L346.9,273.7z M343.6,266.6l0.7,0.2v-0.6l-0.2-0.1L343.6,266.6
					L343.6,266.6z M344.2,258.1h0.7l-1.1-1.7v0.9L344.2,258.1z M344.1,278.1l0.1,2.9l0.4-0.1l1.2-2.9L344.1,278.1L344.1,278.1z
					 M346.1,267l-0.6-0.2l-0.3,0.3l0.9,0.3l4.7-1.1l0.3-1.1l-1.2-0.1l-3.8,0.9l-0.1,0.2L346.1,267L346.1,267z M345.6,277.2l-0.2-0.4
					h-0.2l0.8,1.1v-0.1L345.6,277.2L345.6,277.2z M347.5,277.2v0.1l1.1,0.1l0.6-0.4l3-0.8v-0.4l-3.2-2.7l0.2,3.9l-3.2-0.2
					L347.5,277.2L347.5,277.2z M346,277.8l0.4,1.3l0.2-0.2l-0.3-0.7L346,277.8L346,277.8z M354.1,260.9l1.7,2.5l-0.4,0.1l0.1,0.3
					l1.1,0.6l-0.7,0.9l0.2,0.7v0.2l1.2-1.7l0.1,0.1l1.8-2.3l-0.4-1.1l1.5-0.4l0.1-0.3l-3.4,1.1l0.3,1l-2.1-1l-0.3-0.4v0.1l-0.4-0.9
					l-0.9-1.3l-2.1,3.8L351,264l0.3,0.7l0.1-0.6l0.3,0.3l0.4-0.1L354.1,260.9L354.1,260.9z M352.3,251.7l0.7,0.2l0.6-0.4l0.6-1.1
					l0.2-0.4l-0.1-0.1l0.1-0.1l0.7-1.9h-0.2l-1.9,3.6l-0.8-0.2l0.3,0.6L352.3,251.7L352.3,251.7z M353.7,221.2l0.6,0.8l3,1.1
					l-0.9-1.4l-4.2-1.2l0.4,0.4L353.7,221.2L353.7,221.2z M352.4,273.2l0.4,0.3l2.4-0.2l0.3-0.4L352.4,273.2L352.4,273.2z
					 M356.4,253.8l1.3-3.1l-0.4-1.1l0.7,0.2l-0.2-1.1l-1,0.8l0.3,1.2h-0.2v0.1l-0.8,0.1l-1,2.9h0.3l2.3,2.7l-1.7,2.8v0.1l0.6,1.4
					l2.3-3.8l1.7,3.3v-0.1v0.4l0.6-0.2v-0.6l-1.7-3.4l0.9,0.6l-1.1-3.4l-0.6,2.9L356.4,253.8L356.4,253.8z M357.8,270.4l-0.1,0.2
					l1.1,0.6v-0.3L357.8,270.4L357.8,270.4z M361.5,253.1l1.1-1.7l1.8,2.3l-1.3-0.3l1.4,4.4l-2.2-1.3l0.7-3.1L361.5,253.1
					L361.5,253.1z"/>
				<g>
					<path d="M173.6,280.1l2.5,3.1l-4.4-0.3l-2.2-0.3l-2.2-0.3l-4.4-1.1l-0.4-1.1l-1.1-0.4l-0.4-0.2l0.8,1.8l-2.2-0.8l-2-1.3
						l-2.1-0.4l-3.8-2.3l-1.8-1.4l-3.1-3.2l-1.3-1.9l1-3.2l4.2,1.1l0.6-3.6l-3.2-0.8l-1,3.2l-2.2-3.9l-0.3-1l-0.6,1l-1.2-4.3
						l-0.3-2.2l-0.3-2.2l-0.2-4.9l0.8,0.8l-0.6-4.2l-0.2-4l1.5,0.6V241l-1-1.7l1.1-3.9v-0.1l0.3-5.2l0.3-2.2l1.8-0.3l-1.4-1.1
						l-2,0.2l1.1-4.4l0.2,0.1l1.4-3.2l2.1,4.2l0.3,0.1l-2.4-4.9l-1.7,3.6l0.9-2.1l1-2.1l1.2-2l0.3,1l3-1.1l2.5,1.2l-1.9-2.5l0.9-0.3
						l-1.5-0.7l-3.3,1.1l1.3-1.8l1.5-1.8l1.7-1.5l1.8-1.4l1.9-1.3l4.1-2.1l2.1-0.9l2.2-0.7l-1.4,2.3l-1,2.5l1.2-1.9l4.4-1.1l-0.1,2
						l3.4-0.7l-0.7-0.6l-1.4,0.2l0.1-2h1.5l0.7,0.6l1-0.2l4.6-0.3h5.1l4.4,0.3l3.4,0.6l-0.2-1.5l2.5-1.3l2.2,0.4l2.2,0.6l2.1,0.7
						l2.1,0.8l4.1,1.9v1.3l0.3,2.9l-1.4,4l1.7-0.6l0.2-0.8l-0.4-0.6l0.7,0.2l0.6-1.7l1.3,1.5l-0.2-2.5v-1.3l1.9,1.1l1.9,1.2l3.4,2.9
						l1.5,1.7l2.5,3.8l0.9,2.1l0.8,2.1l0.4,2.2l0.2,2.2l-2.4,2.4l-4.3-1.2l0.6-3.3l-0.4-2l-3.5-4.2l3.1-2.7l-0.8-1.1l-3,2.5
						l-0.3-2.4l-2-0.7l0.3,1.8l-0.6,2l3,3.4l-3.3-0.4l0.6,1.1l4.2,0.7l-1.7,3.6l1.1-0.9l1.7-3.5l0.4,2l-1.1,0.9l-0.6,3.2l-4.5,1
						l-3.3,0.2l-3.5-1.2l-3-0.1l-2.1,0.4l-3.6,0.9l0.6-3.4l-2-1.1h-0.4l1.9,1.1l-0.6,3.4l-3.2-1.2l-3.3-3.3l-4.5-1l-4.5,0.9l2.2-2.7
						l-4.6,0.2l-0.6,2.7l0.8-0.9l3.1-0.8l-3.1,4.5l3.8,0.3l-0.9,2.5l-4.6,1.1v11.9l-3.3-0.4l-1.8,0.2l-5-1.4l-0.3,0.2l-1.3,3.8
						l0.1,1l1.9-0.1l0.8-2.3l5,1.4l1.8-0.2l3.3,0.4l-0.8,1.8l0.9,0.6v2.3l-0.7,4l1.1-2.8l1.5,4l-1.5-0.1l2.2,3.2l-0.1,0.6l3,0.6
						l2.4-0.1l4.3-1.7l-2.3,3.4l0.1,3.6l-0.2,3.5l2.3,0.4l-1.1,2.2l0.2,0.2l0.2-0.1l1.2-2.3l-0.6-2.2l0.2-3.5l-0.1-3.6l2.3-3.4
						l1.5-1.8l1.2-1.9l-0.8-0.8l-2-0.4l-1.4,0.4l-2.1-0.9l-0.6-2.2l-0.6-0.1l0.2-4.7l-0.3-2.3l2,2.3v-1.1l-1.5-1.8v-2.2h-0.1v2.8
						l-1.2-0.9v-4.1l0.9-2.1l2.1-0.9l2.5,0.7l-0.7-3.1l-3.1-0.8h15.2l1.7,0.9l-5.3-0.3l-1.7,1h-4.4l1.4,3.2h-2.5l0.6,2.8h0.2
						l-0.7,2.8h2.3l-1.2,4.2l-2.3,3.9l-1-3.3l-0.6,0.3l1,3.2l1.7,0.3l2.3-3.9h-0.2l0.6-1.8l-0.2-1.2h0.6l0.3-1.2l3.1,0.9l-0.9-1.9
						l-0.9-0.2h-2.3l0.7-2.8l2.8-0.1l1.9-2l1.7-1l5.3,0.3l-1.8-0.9h6.5l1.8,0.4l0.9,3.5l0.7-2.7l-1.8-1.3h2.2l2.3,0.9h4.1l-1,4.9
						l-2,1.8l1,0.2l2.3-2l1-4.9l0.6,3.3l0.3,2.9l-1.8,1.8l-2-0.7l-0.2,0.4l0.6,0.2L214,246v0.1l2.7,0.6v4.1h-0.3l1.3,2.1v0.1
						l0.2-0.1l-0.2,0.3l-0.1,2.4L216,257l-0.1-1.5l-0.6,0.8l0.1,1l2.8-0.2l1,3l-1.5,0.4l-2.9-3l-2.7,0.2l2.3,2.4l0.2-0.1l-0.1,0.3
						l0.3,0.2l-0.3-0.1l-0.1,0.2l0.1,3.6l-1.1-0.4v0.2l0.4,0.2l-0.9,2.1l-1.1,2l-1.7,2.2v0.9l-1.7,1.7l-3.5,2.8l-1.9,1.2l-1.3-0.7
						l-0.1-0.2l-0.6,0.3l-2.1,1h-0.2l-0.1,0.2v-0.1l-4,1.3h-0.1l-1.1,1.5l-1,0.8l-2.2,0.6l1.8-1.5l-0.8-1.1l-1,0.9l-2-1.7l-2.4,2.3
						l-2.3,0.1l-2.2,0.1h-4.9l-0.2,0.6l-2.2-2.7L173.6,280.1L173.6,280.1z M144.5,238.9l1.1,0.2l1.5-1.9l-0.1-0.3l-0.9-0.1l-1.5,1.9
						L144.5,238.9L144.5,238.9z M150.9,235.9l-3,3.4l1.1,0.1l2.4-2.8l0.6,1.8l1.5-2.7l-1.4-3.8l0.2-2.4l-2.9-0.7l2.8-2.8l0.8,2.7h4
						l-2.8,2.8l3.8,0.8l-0.4-1.5l-0.3-0.6h0.2l-0.4-1.4l-1.2-1.3l-1.7,0.6l0.8-1.3l-0.1-0.1h0.2l1.7-3.1l2.3,0.2l0.8-1l-1-1.5
						l-0.1-3.6l-1.4-0.1l0.1,3.6l-0.2,0.7l0.7,0.9l-0.9-0.1l-0.2,0.8l-3.3,1l-2.3,0.2l1.2,1.2h-4.5l-0.3,3l1.7,1.3l1.4,3.8l-1.3,2.2
						L150.9,235.9L150.9,235.9z M151.9,249.2v0.9l0.7,0.1l-0.8,1l-0.1,2l2.1-0.2l-2.3,3.9l3.4-0.1l-1.1-3.8l1.4-2.3l-2.7-0.4
						l0.1-2.1l-2.4,1.2l-0.6,0.7h0.8L151.9,249.2L151.9,249.2z M150,223.5l0.1,0.1l0.4-2.4h-0.2L150,223.5L150,223.5z M150.7,212.1
						l1.5,2.1l3.4-1.1l0.2-0.4l0.1,0.2h3.3l0.1-1.4l0.6-1.2l-1.1,0.1h-3L150.7,212.1L150.7,212.1z M150.7,245.6l2,2.2l0.1-2
						l-0.2-0.2H150.7L150.7,245.6z M159.4,276.1l1.3,2.8l0.8,0.1l0.9,0.6l-0.3-0.7l-1.3-2.8l-0.1-2.5l3.2-0.3l-0.2-2.3l-3.5-0.4
						l0.6-2.8l2.7-3.3l1.8-4.9l2.4,0.2l0.9,2.1l0.8-1.2l-0.3-0.9l-2.4-0.2l1.5-2.3l1.3,0.1l0.4-3l-0.3-0.9l-1.4,3.8l-3.1-1.3h-3
						l1.9-3.3l-3.2,3.3l0.1,2.7l2.5-2.7l3.1,1.3l-1.5,2.3l-1.8,4.9l-2.7,3.3l-0.2-5.1l-0.1-3.4l0.3-0.3l-1.8-1.8l-1,1.3l0.4,1.5
						h-1.5l-0.3,0.6l-1.9,3.1l-1.3-4.5l-0.7,5.2l-0.3-0.1l0.8,2.8l1.9-3.1l2.4-3.4l2.1,2.2l0.2,5.1l-0.6,2.8l3.5,0.4l0.2,2.3
						l-3.2,0.3L159.4,276.1L159.4,276.1z M155.6,238.7l-3.5,0.2l0.2,0.8l1.8-0.1l1.7-0.6L155.6,238.7L155.6,238.7z M156.8,217.4
						l-3,2.7l0.1,0.1l3.2-2.8l-0.1-0.1l-4,0.1l-0.1,0.1L156.8,217.4L156.8,217.4z M157.5,243.1l0.2,0.8l0.6,0.1l-0.4-1.2h-0.3
						L157.5,243.1L157.5,243.1z M162.5,226.4l-1.8,0.1l-1.9,3.4l3.5-1.1l0.1-0.2h0.4l0.4-0.1l3.9-0.2v-2.9l1,0.9l2.4-3.5l-3.1,0.8
						h-5.1L162.5,226.4L162.5,226.4z M159.2,250.3l1.1-0.4l0.2-0.7l-1.5-0.7L159.2,250.3L159.2,250.3z M160.5,212.7l2.1,1.1l0.1-0.8
						l-1.4-0.7l-1.1,0.3H160.5z M163.5,252.5l-0.2,0.1h0.4v-0.1l-0.4-1.9h-1.5l-0.4,0.9L163.5,252.5z M161.9,234.8l0.4,0.6l0.2-0.4
						L161.9,234.8z M162.5,217.2l1.3,2.3l1.4-1.1l-0.4-0.8l1.7-0.1l0.9-0.6L162.5,217.2L162.5,217.2z M167.6,224.6l-2.1,2.5l-3-2.5
						H167.6L167.6,224.6z M163.8,213.6l-0.6-0.2l-0.3,0.6l0.9,0.4l1.7-3.4l-1.2,0.2l-0.2,0.6L163.8,213.6L163.8,213.6z M164.7,267.3
						l0.6,2.1l0.3-0.3l-0.4-1.8l1.2-0.2V267L164.7,267.3z M166.6,263l0.4,1l0.4-0.7L166.6,263z M169.7,217.4l-0.2,0.1l0.1,0.3
						l2.2-4.5l-0.9-0.1l-1.7,3.5l0.2,0.7H169.7L169.7,217.4z M169.9,227.7l0.3-0.1h-0.4L169.9,227.7z M173.5,269.5l0.2-0.2l-0.7-3.5
						l-3,3.6v0.1l3.8,0.7l0.9,2.2l-1.5,4.2l-1,0.2l-0.2,0.4l2.4-0.4l1.1-2.3l1.2-3.3l-0.4-1.2l-2.2-0.3l-0.2,0.6l-0.1-0.7H173.5
						L173.5,269.5z M171.1,257.7l1.2,1.5l-0.2-1.9l-1.1-0.1L171.1,257.7L171.1,257.7z M171.4,220.7h0.4v-0.1h-0.6L171.4,220.7z
						 M173,260.8l-0.3-0.3l-0.1,0.2L173,260.8z M174.8,213.3l0.7,4.6l4.3-0.6l0.4-2.5l-4,0.4l-0.2-1l-0.1,0.2v-1l-0.9-0.2l0.8-0.8
						l-0.1-0.7l-1.4,1.3L174.8,213.3L174.8,213.3z M178.2,277.5l-3.4,0.4l-0.3,0.4l3.5-0.4L178.2,277.5L178.2,277.5z M175.3,266.9
						l-0.4,1.1l0.7-0.9L175.3,266.9z M180.9,207.8l-3.3,3.5h0.9l0.1-0.3l2.8-0.2l0.3-0.2l-3,0.2l2.8-2.9L180.9,207.8L180.9,207.8z
						 M178.4,270.6l1.2,0.3l0.4-0.4l-0.2-0.3l-0.8-0.1L178.4,270.6L178.4,270.6z M180.6,250.8l-1.3-1.8l1.5-3L180.6,250.8z
						 M184.9,212.7l-2.8-0.6l-1.3,1.1v0.2l4.5,0.9l0.1-4l-0.4-0.2L184.9,212.7L184.9,212.7z M183.6,224.3l1.3-5.1l-0.2,0.1l-1.2,5
						H183.6L183.6,224.3z M189.5,222.9l-4.1,1.7l-1.9,1.7h0.6l1.8-1.7l4.1-1.7l0.7-2.3l-0.4-0.1v-0.8l-1.9,0.4L189.5,222.9
						L189.5,222.9z M186.7,270.3l0.3,1.2l1,0.3l0.4-1.4l-1.7-0.6l0.8-1.2l-1.3-0.4l-1.7,2.7l1.7,0.4L186.7,270.3L186.7,270.3z
						 M186,283.5l2.4-2.2l2,1.5L186,283.5L186,283.5z M197.1,222.8l-0.2-1.2l-1.1,0.3l0.9-1.1l-0.6-1.8l2-0.3l0.9-1.1l-4.2,0.6
						l-1.1-2.8l0.2-4.5l-1.5-2.2l-3.1,0.2l-0.6-3.1l-1.7,0.9l0.8,4l1.3,0.8l0.3,0.7l2.5-0.1l1.5,2.2l-0.2,4.5l0.7,1.8l1.1,0.2l1,3.8
						l4.5-1.7l2.3,1.5l1.1-0.2l1.1-3.8l0.1,0.4l0.2-0.8l-1-2l-0.4,0.1l0.1-0.9L204,217l-1.5-2.3l-0.1,2.5l1.7-0.2l-1.4,4.7l-2.3-1.5
						l-1.8,0.7L197.1,222.8L197.1,222.8z M187.6,213.8l0.7,0.9l2.1,0.3l-0.4-0.9L187.6,213.8L187.6,213.8z M188.8,273.9l1.8,2.3
						l2.1,0.8l2.5-0.3l1.5-2l-4.1,0.6L188.8,273.9L188.8,273.9z M195.7,259.7l0.7,1l0.2,0.1l0.4,1l0.4,0.8l-0.1,0.2l0.4,1.2h-0.9
						l-0.3,1.1l1.2-0.1v0.2l1.1-3.2l-1.3-2.2l-1.4,0.3l0.1-4.4l-1,0.3l-0.1,2.3l-3.4,0.1l-2.7-0.3l-0.1,2l1.3,0.1l3.4-0.1
						L195.7,259.7L195.7,259.7z M193.3,247.6l-4.1-0.3l0.6,2.5L193.3,247.6L193.3,247.6z M190.1,235.6h4.4l-3,3.2L190.1,235.6
						L190.1,235.6z M192.5,262.3l-1,1.5h0.4l0.9-1.5H192.5L192.5,262.3z M192.2,221.5l2.1,2.8L192.2,221.5z M193.2,253.5l1.1-0.2
						l-0.3-0.7l-0.9,0.6v0.2L193.2,253.5L193.2,253.5z M193.8,264.3l0.9,1l1.4-0.1l-0.4-1.1L193.8,264.3L193.8,264.3z M196.5,251.2
						l-2.4,1.4l0.8,0.1l2.3-1.4V251h-3.2v0.2L196.5,251.2L196.5,251.2z M196.7,268.9l-0.4-0.4l-1.8,3.4l1-0.2l1.2-2.3l1.1,1.8
						l0.9-0.1v0.1l0.1-1.5v-0.1L196.7,268.9L196.7,268.9z M199.1,252.5l2.9,5l1.8-2l0.6,0.1l0.3-1.9l0.7,1.9h0.8l-1-3l-1.9-3.2
						l-0.3,4.2l-2.8-3.1l2.2-2.4l0.2-1l-0.3,0.4l-0.3-0.8l-1.5,0.7l0.1,0.1l-0.9,3.6h0.6l-0.7,0.8l0.2,0.3h-0.6l-1.2,1.3l-0.7-0.1
						l-1.4,1.2l0.6,0.9l2.3-2l0.3,0.3L199.1,252.5L199.1,252.5z M196.6,247.2l0.1-0.8l-0.2,0.8l0.6,0.1L196.6,247.2L196.6,247.2z
						 M198.9,243.5l1.3,3.8l1.2-1.7l-0.8-2.1H200l-0.1-1.4h-0.1l0.1-0.2l-0.1-2.2l-2.7,4.2l1.7-0.3l-0.9,2.4L198.9,243.5
						L198.9,243.5z M197.4,247.4l-0.1-0.1v0.1H197.4z M201.6,266.6l-3.6-1.3l0.1,0.4l3.2,1.3L201.6,266.6L201.6,266.6z M198.3,259.6
						l0.7,0.2v-0.6l-0.2-0.1L198.3,259.6L198.3,259.6z M198.8,251.1h0.7l-1.1-1.7v0.9L198.8,251.1L198.8,251.1z M198.7,271.1
						l0.1,2.9l0.4-0.1l1.2-2.9L198.7,271.1L198.7,271.1z M200.7,259.9l-0.6-0.2l-0.3,0.3l0.9,0.3l4.7-1.1l0.3-1.1l-1.2-0.1l-3.8,0.9
						l-0.1,0.2L200.7,259.9L200.7,259.9z M200.3,270.2l-0.2-0.4h-0.2l0.8,1.1v-0.1L200.3,270.2L200.3,270.2z M202.1,270.2v0.1
						l1.1,0.1l0.6-0.4l3-0.8v-0.4l-3.2-2.7l0.2,3.9l-3.2-0.2L202.1,270.2L202.1,270.2z M200.6,270.7l0.4,1.3l0.2-0.2l-0.3-0.7
						L200.6,270.7L200.6,270.7z M208.8,253.8l1.7,2.5l-0.4,0.1l0.1,0.3l1.1,0.6l-0.7,0.9l0.2,0.7v0.2l1.2-1.7l0.1,0.1l1.8-2.3
						l-0.4-1.1l1.5-0.4l0.1-0.3l-3.4,1.1l0.3,1l-2.1-1l-0.3-0.4v0.1l-0.4-0.9l-0.9-1.3l-2.1,3.8l-0.4,1.2l0.3,0.7l0.1-0.6l0.3,0.3
						l0.4-0.1L208.8,253.8L208.8,253.8z M206.9,244.7l0.7,0.2l0.6-0.4l0.6-1.1l0.2-0.4l-0.1-0.1l0.1-0.1l0.7-1.9h-0.2l-1.9,3.6
						l-0.8-0.2l0.3,0.6L206.9,244.7L206.9,244.7z M208.3,214.2l0.6,0.8l3,1.1l-0.9-1.4l-4.2-1.2l0.4,0.4L208.3,214.2L208.3,214.2z
						 M207,266.1l0.4,0.3l2.4-0.2l0.3-0.4L207,266.1L207,266.1z M211.1,246.8l1.3-3.1l-0.4-1.1l0.7,0.2l-0.2-1.1l-1,0.8l0.3,1.2
						h-0.2v0.1l-0.8,0.1l-1,2.9h0.3l2.3,2.7l-1.7,2.8v0.1l0.6,1.4l2.3-3.8l1.7,3.3v-0.1v0.4l0.6-0.2v-0.6l-1.7-3.4l0.9,0.6l-1.1-3.4
						l-0.6,2.9L211.1,246.8L211.1,246.8z M212.4,263.3l-0.1,0.2l1.1,0.6v-0.3L212.4,263.3L212.4,263.3z M216.2,246l1.1-1.7l1.8,2.3
						l-1.3-0.3l1.4,4.4l-2.2-1.3l0.7-3.1L216.2,246L216.2,246z"/>
					<path d="M153.6,397.2l-3.1-3l-0.6-0.3l0.8-1.1l-0.6-1.6h-0.2l0.8,1.6l-1.1-1.5l-0.1,0.2l-1.7-1.8l0.2-0.8l-0.8-1.5l-0.9-2.1
						l-0.6-2.2l-0.4-2.3l-0.3-2.2l-0.3-4.6l0.2-0.3l1.6-1.6v-3.4l-1.7,1.1l1.3-4.7l-0.6-1.8l-1.2,4.2v-4.2l1.1-0.3l-0.5-1.6l0.6,0.1
						v-3.8l-0.2-0.9l0.2,0.1v-11.7l-2.3-0.6v-8.4l2.8-1.2v-4.6l2.9-2.9h2.1l-0.8,2.7l1.5-0.5l1.8,3.7l0.2-0.9l-1.4-2.9l-0.6,0.1
						l-0.3-0.9l-0.9,0.3l0.5-1.6h-0.1h0.1l0.3-1.1l0.3,1.1h10.7l0.5-2.1h4.2l-2.2,2.8l0.5-0.1l1.8-2.3h1.6l0.3-0.4l1.9,1.8l0.1,0.6
						l1,1.1l-0.2,3.1l-0.1-0.6l-1.4-0.6v0.3l-0.1-0.3l-1.7-0.8l-0.4,1.1l2.6,1.1l0.2,1.1l-0.1,1.6h0.3l-0.3,0.2l-0.2,2.7l-0.5-2.2
						l-0.8,0.6l-1.3,4.4l-2.9,2.7l3.2,0.1v1l1.9-1.8l1.3-4.4l1.8-1.4l0.5,2.2l0.3-4.6v22.9l-0.8,0.5v10l-0.8-0.1l0.6-2.6l-1.7,0.2
						l0.8-2.7l1-4.8l-1.2,1l1.6-3.7l-3.4,0.2l-1,2.1l0.3,0.6l1.2-0.9l-0.5,2.4l0.9,3l-4.1-0.3l0.8,0.8l3.6,0.3l-0.8,2.6l0.2,0.3
						l0.1,0.1v0.3l0.5,1l-0.5,0.1v2.7h-2.3l-1.6-1.9L166,369l0.5,0.6l1.1-0.2l-0.4,1l1.5,1.7l-2.3,0.2l-0.3,0.8l1.9-0.1l0.6-0.9
						l2.3,0.1l-0.3,2.1h0.2l0.2,1l0.4-1l0.3,4.8l-0.2-1l-3.4-1.4l0.5,1l-1,0.3l0.5,0.2l1.9-0.5l-0.5,1.1l0.9,0.3l1.6,1.4l3.9,1.9
						h4.4l-3.1,2.6l-2.4,3l0.8,0.3l0.3-0.1l2.5-3.2l0.6,2.8l-0.9,0.2v0.1l1.9,3l-1.7,3.7l0.2,0.3h-0.3l-0.1,0.1l-1.2,2.4l2.3,0.2
						l-1.9,1.9l0.8,0.5l0.9-1.4l1.3-0.6v-0.5l0.8,0.1l0.9-0.5l0.1-0.2l-1.1-0.1l2.7-2.9V394l0.1-0.1l-0.5-0.2l-2.8-2.5l0.8-2.3
						l-0.8-1.1l0.5,0.1v-0.1H181l0.1-0.2l-0.2-0.5l-0.3,0.8l-0.6-2.8l0.2-0.1l-0.3-1l-2.1,1.1l3.1-2.6l2.1-0.6l-0.9,0.6l1.6,2.8
						l-0.5,0.9l0.4,1.4l1.5-2.3l-1.6-2.8l2.3-1.7l-0.3-0.3l1.7-3.9l0.2-4.2l0.5,0.3l0.9,3.7l2.9,1.4h0.2l1-2.7l1.4,3.1h0.3l0.1-0.2
						l0.2,0.3l0.5,0.1l-0.1,0.6l1.3,2.4l-2.1,0.3l-0.2,0.5h-3.6l0.2,0.3h2.6l3-0.4l2.2-0.6l-1.7-3.1l2.6-0.2l1.1-0.9l-0.3-0.1
						l-0.3-2.3l-1.7-3.9l-3.4,4v0.1l2.7-3.2l1.4,3.4l1-0.1l-0.6,0.6h-0.1l-2.1,1.7l-2.6,0.2l0.2-1.8l-0.2,1.6l-1.8-3.9l-1.3-2.2
						l-1.4-3.9h-0.2l1.6,4.4l1.3,2.2l-1.2,3.2l-3-1.4l-0.9-3.7l-0.5-0.3v-10.5l0.2-0.4v-1.5l0.6-0.1l0.1-0.2v0.1h0.2l3.4-0.4
						l0.1,3.5l2.4-3.1l1.4,3.4h0.2l0.8-4l-0.3-0.9l-1.2,1.6l-0.1-3.6l-3.6,0.4l-1,0.2v-5.5l-0.5-0.6l-0.2,0.5l-0.4-1l-2.1-0.5V343
						l0.4,2.4l2.9-1.6l1.2,1.7l-4.1-0.1l0.4,0.9l2.4,0.1V346l1,0.2l0.3-0.6l1.8-2.9l2.4-0.6l0.1-0.4l-0.3-0.5l-2.2,0.6l-0.9-1.3
						l-1,1.4l-1.1-1.5l-0.1,2.6l-0.8-1.2l-0.5,0.3l1.3,1.8l-3.4-0.9v-4.1l1.3,1.9l0.8,0.1l-2.1-3v-7.4H187l0.2-0.2v-0.8l1.2-0.3
						l1.5-1.6h5.8l0.4-1.4l0.9,1.4h1.3l-0.9,0.6l1.1-0.8h2.2l1.7,1.5l1.2,4.1l-0.2,4l-2.4,1.8l0.2,0.1l2.2-1.7l0.2-4h3l3.1,0.1
						l-1.6,2.7l1.9,3.8l0.6-0.1l-2.1-3.9l1.6-2.7l-3.1-0.1h-3l-1.2-4.1l-1.7-1.5h10.6l2.1,0.9l0.9,2.1v8.4l-0.5,0.4v6.2l-2.4,0.3
						l-0.6,2.7l-1-2.6l-0.6-0.2l-1.3,3.7l-3.4-4.3l-0.8-0.1l-0.3,0.4l-0.4-0.4l-1.3-0.1l-1-1.8l-0.3-0.2l-1.7,2.9l2.1,1.1l1,1.8
						l2.8,0.2l-0.2,1.3l2.8,3.7l1.6-4.4l1.3,3.6l0.6-2.7l2.4-0.3v2.1l-1.1,0.3l0.6,2.4l1.2,0.5v4.2h-0.5l-0.5-3.4l-1-0.4l0.8,4.9
						v0.1l0.3,0.4l-1.9,4.2l-0.1-0.1l-1.6,2.9l-2.5,4.1l-3.5-1.3l1.7,1.7l1.7,0.6l2.5-4.2l1.7-3l1.9-0.2l1,2.9v4.2h-0.1l0.1,1.6
						h-1.1l-0.2,0.4l-2.3,3.6l0.1,0.1l2.2-3.5h1.3l-0.2,4.2l2.4,0.3l-2.5,3l-0.5,3l-0.5-1l-0.2,0.8l0.5,0.2l-1.6,2.2l-1,1.9
						l-0.4,1.7l-0.2-0.5l-0.6,1.2l-2.9,3.4l-3.5,2.8l-1.9,1.2l-1.9,1l-2.1,0.9l0.1-1.1l-0.3-2.9l-0.4,0.2l0.4,3.5l-0.1,1.1l-2.2,0.8
						l-4.3,1.2l-2.2,0.3l-2.3,0.3l-2.2,0.2l-4.6,0.1h-2.7l-0.4-1.2l-1.9-0.3l-2.2-2.6l0.2-3.9l-1.8-1.5l2.2-4l1.3,1.9l0.2-0.2h0.4
						l-0.9-1.5l-3.4-1.1l-0.5,3.7l-1.5-2.3l-1.8,3.5h0.8l-0.1,0.9l0.8,0.6l-1,0.3l-0.1,0.3l-0.3-0.2h-0.1l0.2,0.2l-1.4,3.8l1.4,0.4
						l1.5-4.2l2.3-0.6l-0.2,3.9l2.1,2.6l-4.4-0.9l-2.7-0.9v0.1l-5.1-1.6l-1.9-1l-1.9-1.2l-1.4-2.9h-0.9l0.3-1.4l-1.3-2.6l1.4-4.3
						l-1.4-2.3l1.4-2.3l-0.9-3.8l2.5,0.4l-0.2-0.2H155v-0.1l-2.5-0.4l0.9,3.8l-1.4,2.3l1.4,2.3l-1.4,4.3h0.2l-0.8,1l1.7,3.4l0.6,0.3
						l-0.3,1.5L153.6,397.2z M147.5,346l-2.3-3l1.1-2.5l3.5-1.4l1.1-1.7l-0.3-1.1h-1.9l0.4-0.9l-2.2,1l0.6,2.2l-3.5,1.4l-1.1,2.5
						l2.2,2.8L147.5,346L147.5,346z M150.2,364.6l2.1,0.9l2.2-1v-0.1l-1,0.4l-2.1-0.9l-1.3-1.3l-1.5-0.1l0.3-1.1l-0.2-0.2h0.2
						l0.9-2.9l-0.4-0.1l-1.8-0.1l-0.4,1.3l1.1,3.1L150.2,364.6L150.2,364.6z M155.1,353.5h0.3l-0.2-0.2l-1-0.2l-1.7-3.2l0.1-0.2
						l-1.7-3.2l-1.9-3.1l2.5-1.4l3.4-1.2l-1.7-4.1l-0.3,0.4l1.5,3.7l-3.4,1.2l-2.5,1.4l1.9,3.1l3.6,6.7l0.8,1.1l1.3,0.1l-0.4-0.5
						L155.1,353.5L155.1,353.5z M149.6,390.8l0.1,0.3l1.3-3.2l-1-3.7l-0.3,0.8l0.9,3.2l-1.1,2.5L149.6,390.8L149.6,390.8z
						 M153.9,359.4l-4.1-1.1l1.7,3.1l0.9,0.1l3.2-0.9l-0.9-1.9l-0.8-0.1l0.1-0.3l-0.8,0.1L153.9,359.4L153.9,359.4z M150.8,332.1
						l-0.4,1l1.3,2.3h1L150.8,332.1L150.8,332.1z M151.2,373.9l2.4,1.7v-0.1l-2.3-1.6l0.8-3.5h-0.1L151.2,373.9L151.2,373.9z
						 M156.8,347l-2.5,1.7l0.2,0.4l3.2,0.5l4-1.1l3.1,0.4v-0.4l-2.9-0.3l-4,1.1l-3.7-0.6L156.8,347l0.1-0.1l-1.8-3.2l-0.1,0.1
						L156.8,347L156.8,347z M159.6,392.3l1.9-0.3l0.1-0.2l1.3-2.6l0.3-0.2h-0.1l-0.4,0.2v-0.3l-1.9-0.4l-0.3-3.5l1.8-0.5V384h0.5
						l2.4-1.3l0.5-0.3l-0.2-0.5h-0.3l0.1-0.3l-1.2-2.3l-0.1,0.3l-2.4-4.2l2.1-1.8l0.5-3.4l1.1-0.2l0.3-0.8l-1.7,0.3l-0.5,3.4
						l-2.6-0.9l-4.1-0.9l1.7-3.2l-2.2-3.2l2.4-0.1l0.3-1.3l-2.4,0.1l-2.1,1v0.1l0.9-0.4l-0.3,1.3l1.5,2.3l-2.3,0.6l3.2-1l-1.7,3.2
						l-0.4,1l4,0.9l2.6,0.9l-1.8,1.6l-1.5,3.1l-1.1-2.2l-0.2,0.1l0.8,1.6l-1.9,0.9l-0.3,0.8l0.2,0.1l2.7-1.3l1.4-2.9l1.9,3.4
						l1.1,0.2l1.9,3.8l-2.4,1.3l-3.1,1l0.3,3.5l-2.8,0.1l-0.2,0.3l2.1-0.1l1.9,3.4l-3.4,0.5l2.7,3.2h0.8l0.2-1.4L159.6,392.3
						L159.6,392.3z M156.8,354.8l1.5,2.9l1.1,0.1l-0.1-0.9l-1.3-2.6l-0.5,0.4l-1-0.5l-0.2,0.1l-0.1,0.6L156.8,354.8L156.8,354.8z
						 M160.9,345.1l1.8,1.5l2.2,1.6v-1.6l-2.7-2.1l-0.5-0.5l-0.5,1.1l-0.2-0.1l-3.9,1.7v0.1L160.9,345.1L160.9,345.1z M157.2,333.2
						l1.5,1.6v-1.2l-0.4-0.5L157.2,333.2z M158.1,361h1.1l1-0.9l-0.5-0.1l-0.1-0.5L158.1,361L158.1,361z M158.8,353.8l0.5,0.3l1-0.8
						l-1.1,0.1L158.8,353.8L158.8,353.8z M159.4,338.8l2.9,0.2l1.1-1.9l-4-0.3V338.8z M159.5,388.4l3.2,0.8l-1.3,2.6L159.5,388.4z
						 M160.6,364.5l2.2,0.4l-1.6-2.5l-0.2,0.8h-1.3l0.8,1.3L160.6,364.5L160.6,364.5z M161.3,362.4h-0.1l3.8,0.4l-1.6-2.4l-2.3-0.2
						l0.1,0.9h0.3l-0.2,0.9V362.4L161.3,362.4z M163.4,356.5v-0.1h-0.8l-1.5,0.8l1.5,2.4l2.8-1.4l-1.6-1.7h-0.3L163.4,356.5
						L163.4,356.5z M161.3,354.1l1-0.1l-0.1-0.2l-0.6-0.2l-0.2,0.3L161.3,354.1L161.3,354.1z M164.9,350.1v-0.5l-2.3,3.8l0.9-0.4
						l1.6-2.6L164.9,350.1L164.9,350.1z M163.5,395.7l1.8,1.5l0.1-0.2l-1.7-1.3L163.5,395.7L163.5,395.7z M163.7,356.1l0.1-0.2
						l-0.2,0.1l0.2,0.4l3.7-0.5l-0.1-0.3L163.7,356.1z M163.9,355.7l1.1-3l-0.2,0.1l-1,2.8L163.9,355.7L163.9,355.7z M164,388.7
						l1.7-0.8h-0.1l-1.6,0.6L164,388.7L164,388.7z M170.7,355l-0.2,0.5l1.9-2.1l0.1-4.2l-2.1,0.9l0.1-4.4l-2.3-0.1l-0.1,2.6l2.1-0.9
						l-0.1,4.2l-2.1,2.2l-1.9-2.3v0.8l-0.4,0.2l2.5,2.8L170.7,355L170.7,355z M166.5,384l1.8,0.9v-0.2L167,384H166.5z M169.8,390.7
						l-1.6,0.6v0.1l1.7-0.8H169.8L169.8,390.7z M168.8,323.9l2.1,0.9l0.9,2.1l-1-1.1L168.8,323.9L168.8,323.9z M172,373l-0.4,1
						l0.4-3V373L172,373z M171.8,387.7l1.8,3.4l1,0.3l0.1-0.6l0.2,0.3v-0.5l-1.2-2.3L171.8,387.7L171.8,387.7z M174.8,397.4h0.2
						l0.2-0.3L174.8,397.4z M179.7,401.7l0.1,0.2l0.3-0.1l0.1-0.4l-1,0.1L179.7,401.7L179.7,401.7z M182.7,388.4l0.1-0.1l-1.1-0.2
						L182.7,388.4L182.7,388.4z M183.7,392.4l1,0.1l0.1-0.1h-1.5l-0.8-1.8l-0.3-0.4l1,2.3l1.2,0.9l0.1-0.2L183.7,392.4L183.7,392.4z
						 M184.9,398.2l0.5-0.8l-2.4-0.2l-0.2,0.1l-0.1,0.8L184.9,398.2L184.9,398.2z M187,395l1.7-0.9l-0.6-0.1l-1.2,0.5l-0.1,0.3h-0.1
						l-1.3,2.2v0.2l1.1-1.6l1.9,3.8l-0.1-1.7L187,395L187,395z M187.8,377.5l-1,3.7l0.5,0.6l1.1-4.3H187.8L187.8,377.5z
						 M189.2,384.8l-0.8,1l0.8,1.7l0.9-0.9L189.2,384.8L189.2,384.8z M195.6,396.2h2.3l1.2-0.8l-1.8-4.3l4.1-0.5l1.6-2.4l-0.6,0.2
						l-1.4,2.2l-4.1,0.5l1.8,4.3h-3.1l-2.2-0.6l-4.6-0.6v0.8l4.7,0.6L195.6,396.2L195.6,396.2z M189.2,335.2l1.5,2.2l0.1-1.9
						l-0.9-1.2L189.2,335.2L189.2,335.2z M193.4,338.5l1.8,0.8l-0.1-2.2l-3.7-1.4L193.4,338.5L193.4,338.5z M191.5,388.9l0.4-0.5
						l0.1-2.5l-0.4,0.5L191.5,388.9z M194.6,348.5l1.4,4l0.6-0.9l-1.2-2.1l0.3-0.5L194.6,348.5l1.3-3l0.6-0.4l-1,0.4l-0.3,1.3
						l-1.2,1L194.6,348.5L194.6,348.5z M195.2,332.9l0.1,2.9l3.2-0.2l2.7-3.1l-2.2,0.8l-0.4-0.8l-0.1,0.2L195.2,332.9L195.2,332.9z
						 M198.8,328.7l-1,0.2l0.1,0.1l1-0.1L198.8,328.7z M202,384.8l-0.6-0.1l-2.9,4.4l1-0.3L202,384.8l0.3-2.3l-1.1-1.4l-1.6,0.5
						L202,384.8L202,384.8z M200.4,342.5l-1.2-0.5l-0.6,1.4L200.4,342.5L200.4,342.5z M200.2,358.4l0.3,0.5l2.8-3.2v-0.9
						L200.2,358.4L200.2,358.4z M202.8,378l-0.1,0.1l2.3,0.4l1.7-3.8l-0.5-0.3l-0.3-0.3l-1.7,3.7l-1.4-0.2L202.8,378L202.8,378z
						 M204,338.6l-0.8,2.1v0.1L204,338.6L204,338.6z M203.4,358.2v1.1l1.4-2.3l-0.2-0.6L203.4,358.2z M206.8,389l1.1,2.7l0.6-2.6
						l0.2-0.2l-3.2-1.3l1.3-2.6l-1.8-0.3l0.4-2.1l-1.5-0.1l-0.1,1.2l1.2,1l-1.5,3L206.8,389L206.8,389z M205.2,367.7l-0.9-3.5
						l0.9,3.6l1.4-3.6l0.9-1.1l-0.3-0.6h-1.5l0.9,1.6h0.1v0.1h-0.1L205.2,367.7L205.2,367.7z M205.4,380.6l0.2-0.2l-0.3-0.8
						l-0.6,1.1l0.4,1.1h1.1l-0.4-1.1L205.4,380.6L205.4,380.6z M205.4,382.3l1.5,2.4l0.3-0.5l2.1,0.4l-0.3-0.4l-1.3-0.3l-0.1,0.3
						l-2.4-2.1l0.2,0.3V382.3L205.4,382.3z M209.2,381.4l0.4,0.8l1.7,0.2l-1.1,1.2l0.6,1.3l-1.4-0.4l-0.2,0.2h0.1l1.6,0.5l0.4-2.4
						l0.6,0.6l-0.4-1.1l-1.1-2.5l-0.5-0.1l0.3-0.4v-0.2l-0.3,0.4l-0.1-1.9l-0.5-0.2l-1.1,1l-0.1,0.3l1,2.4l-2.3-0.2l-0.6,1l1.7,0.1
						v0.1h0.5L209.2,381.4L209.2,381.4z M206.8,360.5l0.5,0.5l1.3-0.1l-1.5-1.2l-0.5,0.3L206.8,360.5L206.8,360.5z M207.8,340.2
						l-0.6,0.9l0.1,0.1h0.1l0.8-1L207.8,340.2L207.8,340.2z M207.9,382.8l0.1-0.1l-0.1-0.1V382.8L207.9,382.8z M211.4,365.9l1.9-4.2
						v4L211.4,365.9z M214.3,366.2l-1-0.8l0.9-2.9l-0.9-0.4l0.4-1.5l0.4,1.7l0.1-0.3L214.3,366.2L214.3,366.2z"/>
				</g>
				<g>
					<circle class="st2" cx="290.8" cy="362.7" r="80.3"/>
					<line class="st3" x1="237.1" y1="416.4" x2="188.3" y2="465.3"/>
				</g>
			</g>
			<path class="st4" d="M417.5,280V176.1c0-8.2-6.6-14.8-14.8-14.8H105.9c-8.2,0-14.8,6.6-14.8,14.8V280
				c0,178.1,163.2,222.6,163.2,222.6S417.5,458.1,417.5,280L417.5,280z"/>
		</g>
		<g>
			<circle class="st4" cx="292.9" cy="362.7" r="76"/>
			<line class="st5" x1="239.1" y1="416.4" x2="186.5" y2="469.1"/>
		</g>
	</g>
	<g>
		<path class="st6" d="M440.3,143.9c-3.2-11.6-34.7-27.2-83.8-37.1l4.1,22.3c-37.9,9.3-99,28-124.6,28c-19.5,0-66.4-13.3-88.9-22.6
			c2-9.9,4.3-19.6,6.9-29.4c-49.5,8.4-83.3,22.6-83.3,38.7c0,25.8,50.7,44.2,152.7,46.7C313.8,192.7,449.1,175.6,440.3,143.9
			L440.3,143.9z"/>
		<path class="st6" d="M356.6,106.8l-12-65.1c-1.7-9.2-6.5-17.1-13.3-22.7c-10.3-8.6-21.7-9-24.7-9c-16.8,0-51,19.9-51,19.9
			l-21.8,11l21.8-11c0,0-30-17.9-47.6-19.9c-16.1,0-30.3,10.8-34.6,26.3c-6.7,23.8-13.5,46.4-19.3,68.8"/>
		<path class="st6" d="M154,105.1c-2.5,9.8-4.9,19.6-6.9,29.4c22.6,9.3,69.4,22.6,88.9,22.6c25.7,0,86.7-18.7,124.6-28l-4.1-22.3"/>
		<path class="st6" d="M154,105.1c26.4,7.3,62,20.2,94.1,20.5c35.4,0.3,72-10.2,108.5-18.8"/>
	</g>
</g>
</svg>
